<?xml version="1.0" encoding="UTF-8" standalone="no" ?>
<!DOCTYPE svg PUBLIC "-//W3C//DTD SVG 1.1//EN" "http://www.w3.org/Graphics/SVG/1.1/DTD/svg11.dtd">
<svg xmlns="http://www.w3.org/2000/svg" xmlns:xlink="http://www.w3.org/1999/xlink" version="1.1" width="500" height="500" viewBox="0 0 500 500" xml:space="preserve">
<desc>Created with Fabric.js 5.3.0</desc>
<defs>
</defs>
<g transform="matrix(1.251083386 0 0 1.7384347084 189.977624203 282.9019776866)" id="9KY5nIMPSNl_9iEiIzp9q"  >
<path style="stroke: rgb(131,131,131); stroke-width: 3; stroke-dasharray: none; stroke-linecap: butt; stroke-dashoffset: 0; stroke-linejoin: miter; stroke-miterlimit: 4; fill: rgb(255,255,255); fill-rule: nonzero; opacity: 1;"  transform=" translate(0, 0)" d="M 0 -30.68043 C 16.9356 -30.68043 30.68043 -16.9356 30.68043 0 C 30.68043 16.9356 16.9356 30.68043 0 30.68043 C -16.9356 30.68043 -30.68043 16.9356 -30.68043 0 C -30.68043 -16.9356 -16.9356 -30.68043 0 -30.68043 z" stroke-linecap="round" />
</g>
<g transform="matrix(1.2041253569 0 0 1.7384347084 265.2340508531 282.9019725136)" id="r7Ah0m4Ry1ygjkhi4LetR"  >
<path style="stroke: rgb(131,131,131); stroke-width: 3; stroke-dasharray: none; stroke-linecap: butt; stroke-dashoffset: 0; stroke-linejoin: miter; stroke-miterlimit: 4; fill: rgb(255,255,255); fill-rule: nonzero; opacity: 1;"  transform=" translate(0, 0)" d="M 0 -30.68043 C 16.9356 -30.68043 30.68043 -16.9356 30.68043 0 C 30.68043 16.9356 16.9356 30.68043 0 30.68043 C -16.9356 30.68043 -30.68043 16.9356 -30.68043 0 C -30.68043 -16.9356 -16.9356 -30.68043 0 -30.68043 z" stroke-linecap="round" />
</g>
<g transform="matrix(1.199061991 0 0 1.7384347084 342.2437630495 282.9019828596)" id="-6I8YwC72SRQIMRVxfCjn"  >
<path style="stroke: rgb(131,131,131); stroke-width: 3; stroke-dasharray: none; stroke-linecap: butt; stroke-dashoffset: 0; stroke-linejoin: miter; stroke-miterlimit: 4; fill: rgb(255,255,255); fill-rule: nonzero; opacity: 1;"  transform=" translate(0, 0)" d="M 0 -30.68043 C 16.9356 -30.68043 30.68043 -16.9356 30.68043 0 C 30.68043 16.9356 16.9356 30.68043 0 30.68043 C -16.9356 30.68043 -30.68043 16.9356 -30.68043 0 C -30.68043 -16.9356 -16.9356 -30.68043 0 -30.68043 z" stroke-linecap="round" />
</g>
<g transform="matrix(1.251083386 0 0 1.7384347084 417.3372446852 282.9019828596)" id="bx0bAXh1zFX9Wn097K0GY"  >
<path style="stroke: rgb(131,131,131); stroke-width: 3; stroke-dasharray: none; stroke-linecap: butt; stroke-dashoffset: 0; stroke-linejoin: miter; stroke-miterlimit: 4; fill: rgb(255,255,255); fill-rule: nonzero; opacity: 1;"  transform=" translate(0, 0)" d="M 0 -30.68043 C 16.9356 -30.68043 30.68043 -16.9356 30.68043 0 C 30.68043 16.9356 16.9356 30.68043 0 30.68043 C -16.9356 30.68043 -30.68043 16.9356 -30.68043 0 C -30.68043 -16.9356 -16.9356 -30.68043 0 -30.68043 z" stroke-linecap="round" />
</g>
<g transform="matrix(1.2935228211 0 0 1.1874865771 303.657432583 146.8699010304)" id="Bg6qWmW-9Wr6t3EF0bC2O"  >
<path style="stroke: rgb(131,131,131); stroke-width: 3; stroke-dasharray: none; stroke-linecap: butt; stroke-dashoffset: 0; stroke-linejoin: miter; stroke-miterlimit: 4; fill: rgb(255,255,255); fill-rule: nonzero; opacity: 1;"  transform=" translate(0, 0)" d="M -117.55772 -117.55772 L 117.55771 -117.55772 L 117.55771 117.55771 L -117.55772 117.55771 z" stroke-linecap="round" />
</g>
<g transform="matrix(1.3704722593 0 0 1.16192907 303.657432583 136.9840367027)" id="L74vqf4hhira9_NYQlplA"  >
<path style="stroke: rgb(131,131,131); stroke-width: 2; stroke-dasharray: none; stroke-linecap: butt; stroke-dashoffset: 0; stroke-linejoin: miter; stroke-miterlimit: 4; fill: rgb(255,255,255); fill-opacity: 0; fill-rule: nonzero; opacity: 1;"  transform=" translate(0, 0)" d="M -102.67315 -102.67315 L 102.67315 -102.67315 L 102.67315 102.67315 L -102.67315 102.67315 z" stroke-linecap="round" />
</g>
<g transform="matrix(1.0159750044 0 0 0.8088281741 190.0676843493 286.4369033822)" id="ZAa1sI5BC8HMt9QKehOzM"  >
<path style="stroke: rgb(131,131,131); stroke-width: 0; stroke-dasharray: none; stroke-linecap: butt; stroke-dashoffset: 0; stroke-linejoin: miter; stroke-miterlimit: 4; fill: rgb(255,255,255); fill-rule: nonzero; opacity: 1;"  transform=" translate(0, 0)" d="M 0 -35.84448 C 19.78615 -35.84448 35.84448 -19.786149999999996 35.84448 0 C 35.84448 19.78615 19.786149999999996 35.84448 0 35.84448 C -19.78615 35.84448 -35.84448 19.786149999999996 -35.84448 0 C -35.84448 -19.78615 -19.786149999999996 -35.84448 0 -35.84448 z" stroke-linecap="round" />
</g>
<g transform="matrix(0.9820839201 0 0 0.6265150482 265.4403122718 285.2542132608)" id="JEb-52nKvM6DNqMit8Znz"  >
<path style="stroke: rgb(131,131,131); stroke-width: 0; stroke-dasharray: none; stroke-linecap: butt; stroke-dashoffset: 0; stroke-linejoin: miter; stroke-miterlimit: 4; fill: rgb(255,255,255); fill-rule: nonzero; opacity: 1;"  transform=" translate(0, 0)" d="M 0 -35.84448 C 19.78615 -35.84448 35.84448 -19.786149999999996 35.84448 0 C 35.84448 19.78615 19.786149999999996 35.84448 0 35.84448 C -19.78615 35.84448 -35.84448 19.786149999999996 -35.84448 0 C -35.84448 -19.78615 -19.786149999999996 -35.84448 0 -35.84448 z" stroke-linecap="round" />
</g>
<g transform="matrix(1.0134312466 0 0 0.8088281741 417.1560085791 286.4369033822)" id="roX9U-4IepsB3DFemT90r"  >
<path style="stroke: rgb(131,131,131); stroke-width: 0; stroke-dasharray: none; stroke-linecap: butt; stroke-dashoffset: 0; stroke-linejoin: miter; stroke-miterlimit: 4; fill: rgb(255,255,255); fill-rule: nonzero; opacity: 1;"  transform=" translate(0, 0)" d="M 0 -35.84448 C 19.78615 -35.84448 35.84448 -19.786149999999996 35.84448 0 C 35.84448 19.78615 19.786149999999996 35.84448 0 35.84448 C -19.78615 35.84448 -35.84448 19.786149999999996 -35.84448 0 C -35.84448 -19.78615 -19.786149999999996 -35.84448 0 -35.84448 z" stroke-linecap="round" />
</g>
<g transform="matrix(0.9729921834 0 0 0.6265150482 342.2004444202 285.2542188899)" id="Lls6uMocBC6EHzEO3Ddzt"  >
<path style="stroke: rgb(131,131,131); stroke-width: 0; stroke-dasharray: none; stroke-linecap: butt; stroke-dashoffset: 0; stroke-linejoin: miter; stroke-miterlimit: 4; fill: rgb(255,255,255); fill-rule: nonzero; opacity: 1;"  transform=" translate(0, 0)" d="M 0 -35.84448 C 19.78615 -35.84448 35.84448 -19.786149999999996 35.84448 0 C 35.84448 19.78615 19.786149999999996 35.84448 0 35.84448 C -19.78615 35.84448 -35.84448 19.786149999999996 -35.84448 0 C -35.84448 -19.78615 -19.786149999999996 -35.84448 0 -35.84448 z" stroke-linecap="round" />
</g>
</svg>