<?xml version="1.0" encoding="UTF-8" standalone="no"?>
<svg
   version="1.1"
   width="308.00775"
   height="333.3551"
   viewBox="0 0 308.00775 333.3551"
   xml:space="preserve"
   id="svg10"
   sodipodi:docname="cardTrolls.svg"
   inkscape:version="1.3 (1:1.3+202307231459+0e150ed6c4)"
   xmlns:inkscape="http://www.inkscape.org/namespaces/inkscape"
   xmlns:sodipodi="http://sodipodi.sourceforge.net/DTD/sodipodi-0.dtd"
   xmlns="http://www.w3.org/2000/svg"
   xmlns:svg="http://www.w3.org/2000/svg"><sodipodi:namedview
   id="namedview10"
   pagecolor="#505050"
   bordercolor="#eeeeee"
   borderopacity="1"
   inkscape:showpageshadow="0"
   inkscape:pageopacity="0"
   inkscape:pagecheckerboard="0"
   inkscape:deskcolor="#505050"
   inkscape:zoom="1.064"
   inkscape:cx="181.39098"
   inkscape:cy="173.87218"
   inkscape:window-width="1754"
   inkscape:window-height="1306"
   inkscape:window-x="26"
   inkscape:window-y="23"
   inkscape:window-maximized="0"
   inkscape:current-layer="svg10" />&#10;<desc
   id="desc1">Created with Fabric.js 5.3.0</desc>&#10;<defs
   id="defs1">&#10;</defs>&#10;&#10;&#10;&#10;&#10;&#10;&#10;&#10;&#10;&#10;&#10;<g
   transform="matrix(1.2510834,0,0,1.7384347,40.324065,277.41153)"
   id="9KY5nIMPSNl_9iEiIzp9q">&#10;<path
   style="opacity:1;fill:#ffffff;fill-rule:nonzero;stroke:#838383;stroke-width:3;stroke-linecap:butt;stroke-linejoin:miter;stroke-miterlimit:4;stroke-dasharray:none;stroke-dashoffset:0"
   d="M 0,-30.68043 C 16.9356,-30.68043 30.68043,-16.9356 30.68043,0 30.68043,16.9356 16.9356,30.68043 0,30.68043 -16.9356,30.68043 -30.68043,16.9356 -30.68043,0 -30.68043,-16.9356 -16.9356,-30.68043 0,-30.68043 Z"
   stroke-linecap="round"
   id="path1" />&#10;</g><g
   transform="matrix(1.2041254,0,0,1.7384347,115.5805,277.41152)"
   id="r7Ah0m4Ry1ygjkhi4LetR">&#10;<path
   style="opacity:1;fill:#ffffff;fill-rule:nonzero;stroke:#838383;stroke-width:3;stroke-linecap:butt;stroke-linejoin:miter;stroke-miterlimit:4;stroke-dasharray:none;stroke-dashoffset:0"
   d="M 0,-30.68043 C 16.9356,-30.68043 30.68043,-16.9356 30.68043,0 30.68043,16.9356 16.9356,30.68043 0,30.68043 -16.9356,30.68043 -30.68043,16.9356 -30.68043,0 -30.68043,-16.9356 -16.9356,-30.68043 0,-30.68043 Z"
   stroke-linecap="round"
   id="path2" />&#10;</g><g
   transform="matrix(1.199062,0,0,1.7384347,192.59021,277.41153)"
   id="-6I8YwC72SRQIMRVxfCjn">&#10;<path
   style="opacity:1;fill:#ffffff;fill-rule:nonzero;stroke:#838383;stroke-width:3;stroke-linecap:butt;stroke-linejoin:miter;stroke-miterlimit:4;stroke-dasharray:none;stroke-dashoffset:0"
   d="M 0,-30.68043 C 16.9356,-30.68043 30.68043,-16.9356 30.68043,0 30.68043,16.9356 16.9356,30.68043 0,30.68043 -16.9356,30.68043 -30.68043,16.9356 -30.68043,0 -30.68043,-16.9356 -16.9356,-30.68043 0,-30.68043 Z"
   stroke-linecap="round"
   id="path3" />&#10;</g><g
   transform="matrix(1.2510834,0,0,1.7384347,267.68369,277.41153)"
   id="bx0bAXh1zFX9Wn097K0GY">&#10;<path
   style="opacity:1;fill:#ffffff;fill-rule:nonzero;stroke:#838383;stroke-width:3;stroke-linecap:butt;stroke-linejoin:miter;stroke-miterlimit:4;stroke-dasharray:none;stroke-dashoffset:0"
   d="M 0,-30.68043 C 16.9356,-30.68043 30.68043,-16.9356 30.68043,0 30.68043,16.9356 16.9356,30.68043 0,30.68043 -16.9356,30.68043 -30.68043,16.9356 -30.68043,0 -30.68043,-16.9356 -16.9356,-30.68043 0,-30.68043 Z"
   stroke-linecap="round"
   id="path4" />&#10;</g><g
   transform="matrix(1.2935228,0,0,1.1874866,154.00388,141.37945)"
   id="Bg6qWmW-9Wr6t3EF0bC2O">&#10;<path
   style="opacity:1;fill:#ffffff;fill-rule:nonzero;stroke:#838383;stroke-width:3;stroke-linecap:butt;stroke-linejoin:miter;stroke-miterlimit:4;stroke-dasharray:none;stroke-dashoffset:0"
   d="M -117.55772,-117.55772 H 117.55771 V 117.55771 H -117.55772 Z"
   stroke-linecap="round"
   id="path5" />&#10;</g><g
   transform="matrix(1.3704723,0,0,1.1619291,154.00388,131.49359)"
   id="L74vqf4hhira9_NYQlplA">&#10;<path
   style="opacity:1;fill:#ffffff;fill-opacity:0;fill-rule:nonzero;stroke:#838383;stroke-width:2;stroke-linecap:butt;stroke-linejoin:miter;stroke-miterlimit:4;stroke-dasharray:none;stroke-dashoffset:0"
   d="m -102.67315,-102.67315 h 205.3463 v 205.3463 h -205.3463 z"
   stroke-linecap="round"
   id="path6" />&#10;</g><g
   transform="matrix(1.015975,0,0,0.80882817,40.414125,280.94645)"
   id="ZAa1sI5BC8HMt9QKehOzM">&#10;<path
   style="opacity:1;fill:#ffffff;fill-rule:nonzero;stroke:#838383;stroke-width:0;stroke-linecap:butt;stroke-linejoin:miter;stroke-miterlimit:4;stroke-dasharray:none;stroke-dashoffset:0"
   d="M 0,-35.84448 C 19.78615,-35.84448 35.84448,-19.78615 35.84448,0 35.84448,19.78615 19.78615,35.84448 0,35.84448 -19.78615,35.84448 -35.84448,19.78615 -35.84448,0 -35.84448,-19.78615 -19.78615,-35.84448 0,-35.84448 Z"
   stroke-linecap="round"
   id="path7" />&#10;</g><g
   transform="matrix(0.98208392,0,0,0.62651505,115.78676,279.76376)"
   id="JEb-52nKvM6DNqMit8Znz">&#10;<path
   style="opacity:1;fill:#ffffff;fill-rule:nonzero;stroke:#838383;stroke-width:0;stroke-linecap:butt;stroke-linejoin:miter;stroke-miterlimit:4;stroke-dasharray:none;stroke-dashoffset:0"
   d="M 0,-35.84448 C 19.78615,-35.84448 35.84448,-19.78615 35.84448,0 35.84448,19.78615 19.78615,35.84448 0,35.84448 -19.78615,35.84448 -35.84448,19.78615 -35.84448,0 -35.84448,-19.78615 -19.78615,-35.84448 0,-35.84448 Z"
   stroke-linecap="round"
   id="path8" />&#10;</g><g
   transform="matrix(1.0134312,0,0,0.80882817,267.50246,280.94645)"
   id="roX9U-4IepsB3DFemT90r">&#10;<path
   style="opacity:1;fill:#ffffff;fill-rule:nonzero;stroke:#838383;stroke-width:0;stroke-linecap:butt;stroke-linejoin:miter;stroke-miterlimit:4;stroke-dasharray:none;stroke-dashoffset:0"
   d="M 0,-35.84448 C 19.78615,-35.84448 35.84448,-19.78615 35.84448,0 35.84448,19.78615 19.78615,35.84448 0,35.84448 -19.78615,35.84448 -35.84448,19.78615 -35.84448,0 -35.84448,-19.78615 -19.78615,-35.84448 0,-35.84448 Z"
   stroke-linecap="round"
   id="path9" />&#10;</g><g
   transform="matrix(0.97299218,0,0,0.62651505,192.54689,279.76377)"
   id="Lls6uMocBC6EHzEO3Ddzt">&#10;<path
   style="opacity:1;fill:#ffffff;fill-rule:nonzero;stroke:#838383;stroke-width:0;stroke-linecap:butt;stroke-linejoin:miter;stroke-miterlimit:4;stroke-dasharray:none;stroke-dashoffset:0"
   d="M 0,-35.84448 C 19.78615,-35.84448 35.84448,-19.78615 35.84448,0 35.84448,19.78615 19.78615,35.84448 0,35.84448 -19.78615,35.84448 -35.84448,19.78615 -35.84448,0 -35.84448,-19.78615 -19.78615,-35.84448 0,-35.84448 Z"
   stroke-linecap="round"
   id="path10" />&#10;</g><rect
   style="fill:#000000;fill-opacity:0.047991"
   id="rect21"
   width="52.532455"
   height="0.0036712876"
   x="113.44559"
   y="150.90639" /></svg>
