<?xml version="1.0" encoding="UTF-8" standalone="no"?>
<!-- Created with Inkscape (http://www.inkscape.org/) -->

<svg
   width="199.76442mm"
   height="83.938194mm"
   viewBox="0 0 199.76442 83.938194"
   version="1.1"
   id="svg1"
   inkscape:version="1.3 (1:1.3+202307231459+0e150ed6c4)"
   sodipodi:docname="trolls-logo.svg"
   xmlns:inkscape="http://www.inkscape.org/namespaces/inkscape"
   xmlns:sodipodi="http://sodipodi.sourceforge.net/DTD/sodipodi-0.dtd"
   xmlns:xlink="http://www.w3.org/1999/xlink"
   xmlns="http://www.w3.org/2000/svg"
   xmlns:svg="http://www.w3.org/2000/svg">
  <sodipodi:namedview
     id="namedview1"
     pagecolor="#505050"
     bordercolor="#eeeeee"
     borderopacity="1"
     inkscape:showpageshadow="0"
     inkscape:pageopacity="0"
     inkscape:pagecheckerboard="0"
     inkscape:deskcolor="#505050"
     inkscape:document-units="mm"
     inkscape:zoom="0.72319444"
     inkscape:cx="349.14538"
     inkscape:cy="152.10294"
     inkscape:window-width="1754"
     inkscape:window-height="1306"
     inkscape:window-x="26"
     inkscape:window-y="23"
     inkscape:window-maximized="0"
     inkscape:current-layer="layer1" />
  <defs
     id="defs1">
    <linearGradient
       inkscape:collect="always"
       xlink:href="#linearGradient4134"
       id="linearGradient4138"
       x1="-448.57144"
       y1="338.91296"
       x2="2511.4287"
       y2="338.91296"
       gradientUnits="userSpaceOnUse"
       gradientTransform="matrix(0.06748797,0,0,0.05889819,35.844423,124.03997)" />
    <linearGradient
       id="linearGradient4134"
       inkscape:swatch="solid">
      <stop
         style="stop-color:#e76b21;stop-opacity:1;"
         offset="0"
         id="stop4136" />
    </linearGradient>
    <rect
       x="1321.4873"
       y="1235.329"
       width="2369.6741"
       height="610.47162"
       id="rect1" />
  </defs>
  <g
     inkscape:label="Layer 1"
     inkscape:groupmode="layer"
     id="layer1"
     transform="translate(-5.5712457,-107.97547)">
    <path
       id="rect4165"
       style="display:inline;fill:url(#linearGradient4138);fill-opacity:1;fill-rule:evenodd;stroke:none;stroke-width:0.0630469px;stroke-linecap:butt;stroke-linejoin:miter;stroke-opacity:1"
       d="m 83.176837,107.97605 c -3.936497,0.0149 -7.922611,0.31584 -11.806493,0.67589 -7.328141,0.67935 -14.396955,2.76095 -21.635947,3.96538 -5.031466,0.83715 -10.040285,1.89847 -15.145028,2.26602 -17.315406,1.24674 -24.7630301,-4.21446 -24.7630301,-4.21446 0,0 1.0495241,2.14528 3.3910771,4.18616 -2.968178,-1.82198 -6.6511339,-6.35141 -6.6511339,-6.35141 0,0 -0.7773325,3.61112 2.8183388,7.37092 -1.864616,-1.22765 -3.7886896,-4.73526 -3.7886896,-4.73526 0,0 -0.1578931,3.24232 0.3249642,4.78281 0.7702224,2.45728 1.9590664,4.97841 4.0027354,6.79748 3.6710971,3.26763 8.6930941,5.67197 13.8471141,6.51444 5.335455,0.87212 9.635511,0.28645 14.388075,-0.2836 0.703415,-0.0843 1.513885,-0.21675 2.370772,-0.37475 v 50.29221 c 0,0.64226 0.59247,1.15932 1.328405,1.15932 h 14.012511 c 0.735941,0 1.328405,-0.51706 1.328411,-1.15932 v -48.8187 c 0.352462,-5.99994 3.580133,-6.9 7.031871,-7.70717 4.308781,-1.00759 8.248956,-1.59425 12.440866,-1.98298 5.130236,-0.47574 9.483236,-0.60721 15.470006,-0.42003 6.982894,0.21831 9.411728,5.61268 9.411728,5.61268 0,0 2.20527,-2.54382 2.37985,-5.28662 0.15771,-2.47757 -0.74654,-5.37581 -2.5699,-7.27978 -2.488574,-2.59858 -5.583488,-3.87859 -9.162655,-4.41768 -2.930454,-0.44139 -5.962119,-0.60317 -9.023848,-0.59155 z m 49.841303,10.81777 c -0.73594,-1e-5 -1.32841,0.51707 -1.32841,1.15933 v 51.04735 c 0,0.64227 0.59247,1.15933 1.32841,1.15933 h 13.8004 c 0.73594,0 1.32841,-0.51706 1.32841,-1.15933 v -43.94135 c 0,-3.59492 0.69623,-5.67968 2.71325,-7.43999 0.4101,-0.35789 0.4019,-0.82534 -0.59675,-0.82534 z m -39.798446,5.05 c -7.09167,0.26399 -11.581677,0.7117 -16.956682,4.35202 0,0 -0.274863,-1.15141 -1.795423,-1.1316 l -13.365821,0.17435 c -0.470144,0.006 -1.174048,0.14433 -0.996959,0.87006 0.787497,3.22729 0.875661,4.43281 0.875661,8.18269 v 30.54961 c 6e-6,0.64227 0.592469,1.15932 1.328411,1.15932 h 13.014907 c 0.735936,0 1.328412,-0.51705 1.328412,-1.15932 v -13.40137 l 6.19e-4,5.6e-4 c 0,-5.97408 0.795628,-10.6271 2.657468,-13.35664 3.294737,-4.83021 8.74831,-5.13595 10.617561,-5.27188 l 1.19673,-0.0872 c 0.716777,-0.0522 1.633164,-0.43288 1.795429,-1.04441 l 2.194339,-8.26986 c 0.20787,-0.78335 -0.638087,-1.54858 -1.894664,-1.56634 z m 60.103396,0.89836 c -0.73595,0 -1.32842,0.51706 -1.32842,1.15934 v 52.65784 c 0,0.64227 0.59247,1.15933 1.32842,1.15933 h 13.8004 c 0.73594,0 1.32841,-0.51706 1.32841,-1.15933 v -45.55185 c 0,-3.59492 0.69621,-5.67968 2.71324,-7.43999 0.4101,-0.35789 0.40189,-0.82534 -0.59674,-0.82534 z m 35.55829,1.5805 c -1.51846,-0.0187 -3.07485,0.1227 -4.60597,0.43927 -3.46098,0.71561 -5.29693,1.90407 -7.50668,3.78198 -1.78445,1.51648 -3.11421,3.49855 -3.90415,5.56003 -0.79663,2.07895 -0.96936,4.12774 -0.57404,6.29255 0.41761,2.28694 1.68607,5.23584 3.40339,7.00127 2.43801,2.50629 4.15449,3.26921 6.41827,5.08962 2.35848,1.89654 4.14006,3.2757 4.60662,5.63419 0.22507,1.13779 -0.68383,2.26713 -1.72927,2.97474 -1.36297,0.92255 -3.46502,0.90528 -5.13786,0.53835 -2.31315,-0.50739 -4.27432,-2.03019 -5.85719,-3.58726 -1.05766,-1.04041 -2.2605,-3.67668 -2.2605,-3.67668 0,0 -2.53647,1.91303 -1.6443,9.32616 0.32811,2.72628 2.17295,5.35082 4.49117,7.20053 2.08454,1.66326 4.95756,2.49432 7.73694,2.93286 3.30585,0.52162 6.91194,0.19103 10.14274,-0.61249 2.6108,-0.64934 5.49133,-1.92275 7.45285,-3.56065 2.33473,-1.94954 3.5649,-3.91169 4.59922,-6.58331 0.82585,-2.13318 0.98567,-4.20167 0.6768,-6.68219 -0.29206,-2.34539 -1.27299,-4.53165 -2.79174,-6.48331 -1.52422,-1.95871 -4.135,-3.59772 -6.14778,-5.1853 -2.16368,-1.70659 -5.38915,-3.17518 -6.53374,-5.05905 -0.66736,-1.09843 -0.40599,-2.91426 0.71935,-3.67668 1.33015,-0.90116 3.49902,-0.79079 5.03473,0.35833 1.66777,1.24796 1.94007,4.31522 1.94007,4.31522 0,0 3.87712,-1.94955 4.49116,-4.90111 0.48988,-2.35474 0.22517,-4.65463 -1.1909,-6.70409 -1.37606,-1.99156 -3.78641,-3.12091 -6.29826,-3.89745 -1.68983,-0.52241 -3.57864,-0.81153 -5.53093,-0.83553 z m -66.05204,2.82982 c -0.19375,0 -0.41729,0.12185 -0.61231,0.41664 -0.30412,0.4597 -0.646,1.01548 -1.1909,1.46954 -0.78626,0.6552 -1.66546,1.11355 -2.64967,1.48313 -1.13237,0.4252 -2.32473,0.7728 -3.54676,0.91423 -1.69182,0.19578 -3.41191,-0.0865 -5.1184,-0.1053 -1.47988,-0.0163 -4.43992,-0.006 -4.43992,-0.006 -13.708931,0 -24.822712,9.5048 -24.822712,21.22967 0,11.72489 11.113137,21.22969 24.822062,21.22969 13.70892,0 24.82205,-9.5048 24.82205,-21.22969 0,-5.99544 -2.91421,-11.40287 -7.5871,-15.26319 -0.46294,0.70107 -0.99431,1.36853 -1.59435,1.99429 -2.53083,2.63931 -6.25926,4.53107 -10.96068,5.24812 3.16845,1.31013 5.34607,4.02056 5.34607,7.15412 0,4.41428 -4.3191,7.99305 -9.64655,7.99305 -5.32742,0 -9.645878,-3.57877 -9.645878,-7.99305 0,-4.41428 4.318448,-7.99247 9.645878,-7.99247 6.43671,0 11.25128,-2.03451 14.24214,-5.15359 2.78795,-2.90745 4.12172,-6.79895 3.37291,-10.9242 -0.0376,-0.2071 -0.14591,-0.46476 -0.43588,-0.46476 z" />
    <text
       xml:space="preserve"
       transform="matrix(0.06748797,0,0,0.05889819,4.221481,106.7975)"
       id="text1"
       style="font-size:192px;white-space:pre;shape-inside:url(#rect1);display:inline;fill:#e76b21;fill-opacity:1"><tspan
         x="1321.4883"
         y="1405.2031"
         id="tspan1">Memory Match</tspan></text>
  </g>
</svg>
